<?xml version="1.0" encoding="utf-8"?><!-- Generator: Adobe Illustrator 23.0.2, SVG Export Plug-In . SVG Version: 6.00 Build 0)  -->
<svg version="1.1" id="Layer_1" xmlns="http://www.w3.org/2000/svg" x="0px" y="0px"
    viewBox="0 0 595.28 841.89" style="enable-background:new 0 0 595.28 841.89;"
    xml:space="preserve">
<style type="text/css">
	.st0{fill:#FFFFFF;}
	.st1{font-family:'SymbolMT';}
	.st2{font-size:33.027px;}
</style>
    <g>
	<g>
		<path class="st0" d="M250.5,373.39c32,0,64,0,96,0c0,32,0,64,0,96c-32,0-64,0-96,0C250.5,437.39,250.5,405.39,250.5,373.39z
			 M274.32,463.7c6.16-7.13,11.82-14.13,15.22-22.53c1.37-3.37,2.32-7.25,2.14-10.83c-0.34-6.85-4.12-11.88-10.65-14.34
			c-7-2.64-13.53-1.41-19,3.67c-5.17,4.81-6.52,10.88-4.39,17.59C260.86,447.39,267.34,455.49,274.32,463.7z M322.61,463.8
			c7.4-8.84,14.56-17.4,17.27-28.6c1.26-5.19-0.26-9.94-3.62-14c-5.44-6.58-15.16-8.34-22.43-4.22
			c-7.56,4.29-10.68,12.86-7.63,21.34C309.64,447.9,315.77,455.76,322.61,463.8z M322.51,404.96c-5.76-0.17-10.14-2.62-13.81-6.58
			c-1.47-1.59-3.04-3.1-4.66-4.53c-3.02-2.68-7.32-3.18-9.82-0.9c-3.64,3.3-7.17,6.72-10.54,10.3c-2.58,2.74-2.14,6.58,0.74,9.05
			c2.33,2.01,4.58,4.14,7.08,5.93c2.69,1.92,3.8,4.19,3.51,7.56c-0.33,3.93-0.08,7.92-0.08,11.88c2.43,0,4.48,0,6.75,0
			c0-6.56,0.04-12.96-0.05-19.36c-0.01-0.7-0.63-1.49-1.15-2.07c-1.94-2.15-3.97-4.22-5.53-5.86c2.55-2.93,4.94-5.67,7.53-8.64
			c5.47,6.16,11.76,9.89,20.02,9.62C322.51,409.16,322.51,407.19,322.51,404.96z M279.32,387.52c4.33,0,8.66,0.01,12.99,0
			c3-0.01,4.66-1.41,4.72-3.91c0.06-2.46-1.68-4.21-4.51-4.23c-8.66-0.06-17.32-0.05-25.98,0c-2.73,0.02-4.64,1.91-4.53,4.26
			c0.11,2.43,1.76,3.86,4.56,3.88C270.83,387.54,275.08,387.52,279.32,387.52z M271.28,398.36c2.5,0,4.99,0.05,7.49-0.01
			c2.69-0.07,4.22-1.5,4.24-3.86c0.02-2.31-1.54-4.05-4.07-4.1c-5.07-0.11-10.15-0.09-15.23-0.01c-2.38,0.04-4.18,1.94-4.18,4.09
			c0,2.28,1.65,3.83,4.26,3.88C266.29,398.4,268.78,398.36,271.28,398.36z M266.06,400.92c-1.99,0-3.99-0.11-5.98,0.03
			c-2.43,0.17-3.57,1.8-3.56,4.78c0.01,3.17,0.98,4.65,3.52,4.73c3.9,0.13,7.81,0.14,11.71-0.04c2.59-0.12,3.46-1.69,3.38-5.3
			c-0.06-2.61-1.24-4.05-3.59-4.17C269.72,400.85,267.88,400.92,266.06,400.92z M310.49,379.97c-3.65-0.05-6.83,2.97-6.85,6.51
			c-0.02,3.46,3.18,6.66,6.72,6.72c3.57,0.06,6.84-3.05,6.87-6.54C317.26,383.17,314.09,380.02,310.49,379.97z" />
        <path d="M266.59,462.49c-4.04-9.99-7.64-19.71-7.51-30.34c0.09-7.04,3.29-12.38,9.7-15.32c6.79-3.1,13.38-2.21,19.19,2.5
			c5.42,4.39,7.42,10.36,5.59,16.97c-0.96,3.46-3.08,6.84-5.44,9.6C282.25,452.8,274.68,457.66,266.59,462.49z" />
        <path d="M330.65,462.47c-9.1-5.36-17.47-10.78-23.85-18.69c-5.66-7.02-5.52-16.13,0.22-22.66c5.51-6.28,15.28-7.79,22.57-3.36
			c4.5,2.73,7.49,6.73,8,12.04C338.7,441.27,334.75,451.69,330.65,462.47z" />
        <path d="M322.87,408.16c-0.35,2.21-0.65,4.15-0.99,6.3c-8.21-1.02-13.84-5.68-18.28-12.62c-3.02,2.53-5.81,4.87-8.78,7.37
			c1.28,1.86,2.96,4.23,4.55,6.65c0.43,0.65,0.92,1.53,0.82,2.23c-0.91,6.34-1.94,12.65-2.96,19.14c-2.25-0.35-4.27-0.67-6.67-1.05
			c0.62-3.91,0.98-7.89,1.93-11.72c0.81-3.29,0.06-5.7-2.29-8.02c-2.19-2.15-4.08-4.61-6.07-6.95c-2.45-2.89-2.3-6.75,0.68-9.06
			c3.88-3.01,7.91-5.84,12.01-8.53c2.83-1.86,6.99-0.7,9.56,2.42c1.38,1.67,2.69,3.41,3.89,5.2
			C313.26,403.99,317.2,407.09,322.87,408.16z" />
        <path d="M279.82,387.52c-4.21,0.52-8.43,1.05-12.64,1.54c-2.78,0.32-4.59-0.9-5-3.29c-0.39-2.32,1.26-4.44,3.98-4.78
			c8.59-1.1,17.18-2.16,25.78-3.15c2.81-0.33,4.75,1.21,4.99,3.65c0.24,2.49-1.24,4.08-4.21,4.45
			C288.42,386.48,284.12,386.99,279.82,387.52z" />
        <path d="M269.79,398.08c-2.32-0.93-4.65-1.81-6.95-2.79c-2.4-1.02-3.36-3.06-2.52-5.18c0.8-2,3.17-3.1,5.4-2.25
			c4.74,1.81,9.47,3.67,14.14,5.65c2.33,0.99,3.13,3.18,2.26,5.32c-0.9,2.18-2.84,2.95-5.37,2.01
			C274.41,399.98,272.11,399.01,269.79,398.08z" />
        <path d="M264.42,401.13c1.72-0.62,3.42-1.31,5.16-1.84c2.25-0.68,3.85,0.27,4.79,2.71c1.3,3.37,1.01,5.15-1.38,6.13
			c-3.61,1.48-7.29,2.8-11,4c-2.41,0.78-3.83-0.29-4.91-3.26c-1.02-2.8-0.5-4.72,1.73-5.7C260.62,402.38,262.54,401.8,264.42,401.13
			z" />
        <path d="M314.88,381.61c3.54,0.61,6.18,4.21,5.61,7.66c-0.57,3.44-4.28,6.01-7.8,5.39c-3.49-0.61-6.15-4.27-5.59-7.69
			C307.67,383.48,311.29,380.99,314.88,381.61z" />
        <path class="st0" d="M275.11,446.91c0.18-5.68,0.32-11.32,0.59-16.96c0.03-0.53,0.72-1.29,1.26-1.47
			c0.54-0.18,1.53,0.01,1.89,0.42c3.7,4.25,7.32,8.58,10.96,12.89c-1.66,1.3-3.03,1.39-4.09-0.4c-0.84-1.41-1.89-1.64-3.33-0.93
			c-0.81,0.4-1.7,0.71-2.59,0.91c-1.39,0.31-1.94,1.07-1.74,2.47C278.35,445.91,277.42,446.92,275.11,446.91z M278.05,431.72
			c0,2.84,0.01,5.02,0.01,7.41c1.69-0.59,3.05-1.07,4.72-1.65C281.26,435.61,279.87,433.93,278.05,431.72z" />
        <path class="st0" d="M330.2,420.55c1.75,1.59,3.44,3.04,5.03,4.6c1.5,1.47,2.41,3.21,1.62,5.39c-0.76,2.11-2.43,2.81-4.7,2.73
			c0.48,2.52-0.25,4.49-2.56,5.59c-2.38,1.13-4.37,0.12-6.16-1.4c-1.57-1.33-3.06-2.76-4.72-4.27
			C322.49,429.03,326.21,424.94,330.2,420.55z M322.59,433.5c1.66,1.47,2.71,3.7,5.19,3.06c0.82-0.21,2.09-1.78,1.91-2.18
			c-0.77-1.76-2-3.31-3.2-5.17C324.91,430.95,323.86,432.1,322.59,433.5z M327.35,428.41c2.04,0.92,3.65,1.77,5.37,2.3
			c0.33,0.1,1.64-1.37,1.52-1.61c-0.82-1.6-1.92-3.07-3.1-4.85C329.77,425.74,328.86,426.75,327.35,428.41z" />
	</g>
        <path d="M311.17,381.41c2.4,0.41,4.19,2.85,3.8,5.19c-0.39,2.33-2.9,4.07-5.28,3.65c-2.36-0.41-4.17-2.89-3.79-5.21
		C306.28,382.68,308.73,380.99,311.17,381.41z" />
        <text transform="matrix(1 0 0 1 288.323 459.6377)" class="st1 st2">α</text>
</g>
</svg>
