<?xml version="1.0" encoding="utf-8"?><!-- Generator: Adobe Illustrator 23.0.2, SVG Export Plug-In . SVG Version: 6.00 Build 0)  -->
<svg version="1.1" id="Layer_1" xmlns="http://www.w3.org/2000/svg" x="0px" y="0px"
    viewBox="0 0 144 144" style="enable-background:new 0 0 144 144;" xml:space="preserve">
<style type="text/css">
	.st0{fill:#FFFFFF;}
</style>
    <g>
	<g>
		<g>
			<path d="M28.62,143.45c-10.5-14.76-20.18-29.26-24.11-46.69c-2.6-11.54,0.55-21.53,9.9-28.83c9.89-7.72,21.02-8.84,32.35-3.4
				c10.57,5.07,16.18,14.05,15.76,25.57c-0.22,6.02-2.38,12.38-5.15,17.83C50.46,121.49,39.97,132.4,28.62,143.45z" />
            <path d="M114.04,144c-11.95-13.14-22.67-26.01-28.98-41.9c-5.59-14.09-0.82-28.65,11.65-36.28c11.98-7.33,28.41-4.9,37.92,5.85
				c5.87,6.63,8.68,14.53,6.85,23.32C137.54,113.96,125.99,128.73,114.04,144z" />
            <path d="M113.83,44.72c-0.07,3.76-0.14,7.06-0.21,10.72c-13.91,0.19-24.35-6.28-33.35-16.82c-4.45,4.92-8.56,9.45-12.94,14.29
				c2.56,2.81,5.9,6.36,9.1,10.03c0.86,0.99,1.88,2.34,1.87,3.52c-0.06,10.76-0.33,21.52-0.54,32.55
				c-3.83-0.07-7.26-0.14-11.35-0.22c0.13-6.66-0.17-13.36,0.52-19.96c0.59-5.66-1.2-9.5-5.66-12.82
				c-4.14-3.08-7.85-6.74-11.7-10.19c-4.75-4.26-5.37-10.71-0.94-15.24c5.77-5.9,11.83-11.54,18.05-16.97
				c4.28-3.74,11.48-2.76,16.48,1.84c2.68,2.46,5.25,5.06,7.68,7.77C96.87,39.98,104.16,44.24,113.83,44.72z" />
            <path d="M40.59,14.58c-7.13,0.29-14.26,0.6-21.4,0.84c-4.71,0.16-7.57-2.14-7.92-6.2C10.93,5.27,14,1.96,18.59,1.75
				c14.54-0.66,29.09-1.25,43.64-1.74c4.75-0.16,7.79,2.67,7.85,6.81c0.06,4.2-2.64,6.66-7.67,6.88
				C55.13,14.02,47.86,14.29,40.59,14.58z" />
            <path d="M26.4,32.78c-4.19-0.22-8.39-0.38-12.57-0.69c-4.37-0.32-7-3.06-6.8-6.89c0.19-3.62,3.38-6.65,7.38-6.5
				c8.53,0.32,17.05,0.74,25.56,1.37c4.24,0.31,6.71,3.37,6.46,7.25c-0.25,3.96-2.93,6.23-7.46,6.1C34.78,33.3,30.59,33,26.4,32.78z
				" />
            <path d="M16.67,37.14c3.03-0.51,6.05-1.14,9.09-1.5c3.92-0.46,6.28,1.6,7.11,5.92c1.14,5.97,0.14,8.82-4.12,9.73
				c-6.41,1.38-12.9,2.46-19.4,3.33c-4.23,0.57-6.24-1.62-7.15-6.86c-0.85-4.93,0.58-7.96,4.56-8.91
				C10.01,38.07,13.36,37.69,16.67,37.14z" />
            <path d="M100.1,4.63c5.96,1.02,10.39,7.08,9.43,12.88c-0.96,5.78-7.2,10.1-13.11,9.06c-5.87-1.03-10.35-7.18-9.41-12.93
				C87.97,7.77,94.05,3.59,100.1,4.63z" />
            <path class="st0" d="M22.06,107.25c2.21-9.3,4.34-18.54,6.67-27.73c0.22-0.87,1.62-1.88,2.57-2c0.95-0.12,2.52,0.53,2.97,1.32
				c4.67,8.25,9.17,16.59,13.72,24.92c-3.17,1.58-5.45,1.26-6.6-2.03c-0.9-2.6-2.56-3.35-5.17-2.65c-1.48,0.39-3.04,0.6-4.57,0.62
				c-2.39,0.03-3.56,1.11-3.7,3.49C27.73,106.68,25.85,108.04,22.06,107.25z M32.01,83.2c-0.95,4.68-1.67,8.27-2.47,12.2
				c2.99-0.41,5.39-0.73,8.34-1.13C35.98,90.69,34.26,87.46,32.01,83.2z" />
            <path class="st0" d="M105.99,78.46c3.96,0.32,7.7,0.51,11.41,0.95c3.51,0.41,6.5,1.79,7.7,5.5c1.16,3.58-0.35,6.23-3.44,8.47
				c3.23,2.87,4.28,6.24,2.34,10.06c-2,3.95-5.7,4.65-9.64,4.47c-3.46-0.16-6.91-0.53-10.66-0.83
				C104.44,97.66,105.19,88.4,105.99,78.46z M109.18,103.51c3.73,0.25,7.41,2.14,10.05-1.27c0.87-1.12,0.95-4.51,0.3-4.86
				c-2.83-1.54-6.06-2.35-9.57-3.58C109.64,97.74,109.43,100.35,109.18,103.51z M110.27,91.85c3.65-0.87,6.68-1.39,9.51-2.46
				c0.55-0.21,0.77-3.51,0.36-3.7c-2.75-1.29-5.7-2.11-9.11-3.26C110.75,85.8,110.57,88.09,110.27,91.85z" />
		</g>
        <path d="M98.36,7.82c4.04,0.69,7.04,4.8,6.39,8.73c-0.65,3.92-4.88,6.84-8.88,6.14c-3.97-0.7-7.01-4.87-6.37-8.76
			C90.14,9.95,94.26,7.12,98.36,7.82z" />
	</g>
        <g>
		<path d="M67.49,128.74v3.08c0,1.97-0.24,4.1-0.73,6.39h-3.08c0.33-1.51,0.52-2.53,0.58-3.08c0.16-1.7,0.24-2.94,0.24-3.73v-18.62
			c0-2.17,0.22-3.79,0.65-4.84s1.21-1.93,2.33-2.63c1.12-0.7,2.47-1.06,4.03-1.06c2.17,0,3.91,0.58,5.21,1.75s1.95,2.55,1.95,4.15
			c0,1.03-0.26,2.01-0.79,2.94c-0.53,0.93-1.34,1.73-2.45,2.41c3.25,1.55,4.88,3.97,4.88,7.25c0,1.46-0.34,2.82-1.02,4.08
			c-0.68,1.26-1.62,2.23-2.81,2.89c-1.19,0.66-2.42,0.99-3.68,0.99c-0.81,0-1.62-0.14-2.41-0.42S68.63,129.51,67.49,128.74z
			 M67.49,127.3c1.18,0.83,2.2,1.42,3.08,1.79c0.66,0.27,1.31,0.4,1.97,0.4c1.23,0,2.26-0.51,3.09-1.52
			c0.83-1.01,1.25-2.62,1.25-4.82c0-1.38-0.2-2.6-0.59-3.63c-0.39-1.04-1.09-2.18-2.09-3.42c-0.84,0.28-1.56,0.42-2.17,0.42
			c-0.73,0-1.24-0.11-1.54-0.33c-0.3-0.22-0.45-0.46-0.45-0.71c0-0.23,0.12-0.44,0.35-0.62c0.23-0.18,0.6-0.27,1.11-0.27
			c0.6,0,1.49,0.16,2.7,0.47c0.85-1.69,1.28-3.28,1.28-4.79c0-1.53-0.38-2.71-1.13-3.55c-0.75-0.84-1.69-1.26-2.81-1.26
			c-1.41,0-2.5,0.6-3.28,1.79c-0.51,0.79-0.77,2.06-0.77,3.81V127.3z" />
	</g>
</g>
</svg>
